<svg clip-rule="evenodd" fill-rule="evenodd" stroke-miterlimit="10" viewBox="0 0 342 302" xmlns="http://www.w3.org/2000/svg" xmlns:xlink="http://www.w3.org/1999/xlink"><clipPath id="a"><path clip-rule="evenodd" d="m194.007 175.073 20.185.083-14.349-19.166 17.021-13.917-17.097-4.25 5.449-16.917-20.391 7.25-8.384-22.583-10.744 17.583-13.927-10.333.434 19.5-22.352 1.083 13.95 16.834-16.086 11.833 18.946 5.833-5.185 19.25 18.19-7.5 6.635 21 12.834-18.916 16.111 10.833zm-1.966 11.833-13.809-9.25-11.003 16.25-5.683-18.083-15.6 6.5 4.444-16.5-16.233-5 13.785-10.167-11.954-14.416 19.158-.917-.376-16.75 11.942 8.917 9.206-15.167 7.187 19.417 17.478-6.25-4.667 14.5 14.648 3.666-14.59 11.917 12.307 16.417h-17.309z"/></clipPath><clipPath id="b"><path clip-rule="evenodd" d="m212.192 193.99 37.493.083-26.655-35.667 31.605-25.75-31.74-8 10.11-31.416-37.869 13.5-15.564-42-19.957 32.75-25.863-19.25.805 36.333-41.51 2 25.904 31.25-29.867 22 35.174 10.75-9.622 35.833 33.782-14 12.319 39 23.842-35.083 29.92 20zm-.899 26.666-27.618-18.416-22.011 32.333-11.367-36-31.187 13 8.882-33.167-32.467-9.916 27.565-20.25-23.913-28.917 38.321-1.833-.746-33.5 23.873 17.833 18.424-30.25 14.367 38.75 34.956-12.5-9.335 29 29.298 7.333-29.174 23.834 24.606 32.916-34.605-.083z"/></clipPath><g fill="none" stroke="#c0a973" stroke-width="4.17"><path d="m257.332 105.156-167.629 95.027z"/><path d="m218.602 58.74-93.493 191.375z"/><path d="m283.558 164.523-224.856-22.867z"/><path d="m150.638 58.24 43.024 187.462z"/><path d="m108.597 87.99 129.466 132.419z"/><path d="m238.151 53.18-19.551 5.564-11.584-19.504 11.584 19.504z"/><path d="m227.137 77.091-19.557 5.564-11.584-19.499 11.584 19.499z"/><path d="m106.424 254.971 19.551-5.565 11.584 19.499-11.584-19.499z"/><path d="m117.438 231.143 19.551-5.57 11.584 19.504-11.584-19.504z"/><path d="m295.327 181.398-11.766-16.853 14.073-17.722-14.073 17.722z"/><path d="m269.531 178.982-11.766-16.854 14.073-17.722-14.073 17.722z"/><path d="m46.932 124.823 11.766 16.854-14.073 17.721 14.073-17.721z"/><path d="m72.727 127.323 11.766 16.854-14.073 17.721 14.073-17.721z"/><path d="m110.867 68.573-1.244 20.647-21.876 4.763 21.876-4.763z"/><path d="m235.404 240.53 1.28-20.647 21.882-4.727-21.882 4.727z"/><path d="m181.672 260.969 11.596-16.979 21.119 7.508-21.119-7.508z"/><path d="m162.235 41.323-11.596 16.98-21.118-7.515 21.118 7.515z"/><path d="m275.293 112.533-19.205-6.707 1.298-22.753-1.298 22.753z"/><path d="m69.58 193.99 19.205 6.701-1.298 22.759 1.298-22.759z"/></g><g clip-path="url(#a)"><path d="m86.049 63.886h172.482v178.438h-172.482z" fill="#c0a973"/></g><g clip-path="url(#b)"><path d="m47.417 23.118h248.884v259.955h-248.884z" fill="#c0a973"/></g></svg>