<svg clip-rule="evenodd" fill-rule="evenodd" stroke-linejoin="round" stroke-miterlimit="1.41421" viewBox="0 0 477 477" xmlns="http://www.w3.org/2000/svg" xmlns:xlink="http://www.w3.org/1999/xlink"><clipPath id="a"><path clip-rule="evenodd" d="m0 0h477v477h-477z"/></clipPath><path d="m0 0h477v477h-477z"/><g clip-path="url(#a)" fill="#fff" fill-rule="nonzero"><g transform="matrix(.75 0 0 .75 -5.97886 .405498)"><path d="m121.468 175.462h90.032v13.733h-37.571v94.198h-15.507v-94.198h-36.954z"/><path d="m226.544 283.393v-107.776h27.002c10.903 0 19.557 2.7 25.96 8.1 6.404 5.401 9.605 12.704 9.605 21.91 0 6.275-1.569 11.701-4.706 16.279-3.137 4.577-7.638 7.997-13.501 10.26 3.446 2.263 6.815 5.349 10.107 9.258 3.291 3.909 7.92 10.724 13.886 20.445 3.755 6.12 6.764 10.723 9.027 13.809l5.709 7.715h-18.362l-4.706-7.098c-.154-.257-.463-.694-.926-1.311l-3.008-4.243-4.783-7.869-5.169-8.41c-3.189-4.423-6.108-7.946-8.757-10.569s-5.04-4.513-7.175-5.67c-2.134-1.158-5.721-1.736-10.762-1.736h-4.012v46.906zm20.058-94.661h-4.629v34.022h5.864c7.817 0 13.179-.668 16.085-2.006 2.906-1.337 5.169-3.355 6.789-6.056 1.62-2.7 2.43-5.773 2.43-9.219 0-3.394-.9-6.468-2.7-9.219-1.8-2.752-4.333-4.693-7.599-5.825-3.266-1.131-8.679-1.697-16.24-1.697z"/><path d="m321.668 175.617h15.43v107.776h-15.43z"/><path d="m395.422 174.999h10.878l48.217 108.394h-15.815l-14.35-31.939h-45.826l-13.578 31.939h-15.815zm22.604 62.722-17.358-39.037-16.124 39.037z"/><path d="m466.398 175.617h15.43v93.735h48.526v14.041h-63.956z"/><path d="m153.504 384.963-10.56-6.391c-6.623-4.03-11.336-8.001-14.138-11.915s-4.203-8.418-4.203-13.513c0-7.642 2.652-13.848 7.955-18.619 5.303-4.77 12.192-7.155 20.668-7.155 8.105 0 15.539 2.269 22.301 6.808v15.771c-6.993-6.716-14.52-10.074-22.579-10.074-4.539 0-8.267 1.054-11.185 3.161s-4.377 4.805-4.377 8.094c0 2.917 1.066 5.65 3.196 8.197 2.131 2.548 5.581 5.211 10.352 7.99l10.629 6.252c11.857 7.04 17.785 16.026 17.785 26.956 0 7.781-2.605 14.103-7.816 18.966-5.21 4.864-11.984 7.295-20.321 7.295-9.587 0-18.317-2.941-26.191-8.823v-17.646c7.503 9.494 16.187 14.242 26.053 14.242 4.353 0 7.977-1.216 10.872-3.648 2.895-2.431 4.342-5.476 4.342-9.135 0-5.929-4.261-11.533-12.783-16.813z"/><path d="m186.365 328.481h81.075v12.367h-33.833v84.827h-13.964v-84.827h-33.278z"/><path d="m318.99 327.231c15.006 0 27.5 4.747 37.481 14.242 9.981 9.494 14.971 21.398 14.971 35.709 0 14.312-5.037 26.157-15.11 35.536-10.074 9.379-22.776 14.068-38.106 14.068-14.636 0-26.829-4.689-36.578-14.068-9.75-9.379-14.624-21.132-14.624-35.258 0-14.497 4.909-26.493 14.728-35.987 9.819-9.495 22.231-14.242 37.238-14.242zm.556 13.2c-11.116 0-20.252 3.473-27.408 10.421-7.155 6.947-10.733 15.816-10.733 26.608 0 10.467 3.589 19.175 10.768 26.122s16.164 10.421 26.956 10.421c10.838 0 19.881-3.543 27.129-10.629 7.248-7.087 10.873-15.91 10.873-26.47 0-10.282-3.625-18.931-10.873-25.948s-16.153-10.525-26.712-10.525z"/><path d="m388.88 425.675v-97.055h24.316c9.819 0 17.611 2.432 23.377 7.295 5.767 4.863 8.65 11.44 8.65 19.73 0 5.651-1.413 10.537-4.238 14.659s-6.878 7.202-12.158 9.24c3.103 2.038 6.137 4.817 9.101 8.337s7.133 9.657 12.505 18.41c3.381 5.512 6.091 9.657 8.129 12.436l5.141 6.948h-16.535l-4.238-6.392c-.139-.232-.417-.625-.833-1.181l-2.71-3.821-4.307-7.086-4.655-7.573c-2.872-3.983-5.5-7.156-7.885-9.518s-4.539-4.064-6.461-5.106-5.153-1.563-9.692-1.563h-3.612v42.24zm18.063-85.244h-4.168v30.637h5.28c7.04 0 11.868-.602 14.485-1.806s4.655-3.022 6.113-5.454c1.459-2.431 2.189-5.198 2.189-8.302 0-3.056-.811-5.824-2.432-8.302s-3.902-4.226-6.843-5.245-7.816-1.528-14.624-1.528z"/><path d="m474.402 328.62h55.023v12.366h-41.129v29.596h39.739v12.436h-39.739v30.151h42.449v12.367h-56.343z"/></g><path d="m193.791 373.611h-9.354v-27.626h7.238c2.281 0 4.061.307 5.34.92 1.278.613 2.254 1.456 2.926 2.531.673 1.074 1.009 2.317 1.009 3.728 0 2.715-1.404 4.66-4.212 5.833 2.017.383 3.622 1.213 4.815 2.492s1.79 2.808 1.79 4.588c0 1.411-.363 2.67-1.088 3.777s-1.79 2.011-3.194 2.709c-1.404.699-3.16 1.048-5.27 1.048zm-1.997-24.106h-3.401v8.306h2.63c2.109 0 3.609-.402 4.499-1.206.889-.805 1.334-1.846 1.334-3.125 0-2.65-1.687-3.975-5.062-3.975zm.297 11.826h-3.698v8.76h3.895c2.162 0 3.629-.168 4.4-.504.772-.336 1.391-.86 1.859-1.572s.702-1.477.702-2.294c0-.844-.247-1.615-.741-2.314-.495-.698-1.197-1.219-2.106-1.562-.91-.343-2.347-.514-4.311-.514z"/><path d="m223.87 345.985h4.785l-10.204 13.012v14.614h-4.054v-14.614l-10.204-13.012h4.786l7.396 9.532z"/><path d="m257.883 360.006h9.275v11.707c-3.401 1.476-6.776 2.215-10.125 2.215-4.575 0-8.23-1.335-10.966-4.005-2.735-2.669-4.103-5.962-4.103-9.878 0-4.126 1.417-7.56 4.252-10.303 2.834-2.742 6.387-4.113 10.659-4.113 1.555 0 3.032.168 4.429.504 1.398.337 3.164.953 5.3 1.849v4.035c-3.296-1.912-6.565-2.868-9.808-2.868-3.019 0-5.564 1.029-7.634 3.085-2.069 2.057-3.104 4.581-3.104 7.574 0 3.138 1.035 5.702 3.104 7.693 2.07 1.99 4.733 2.986 7.99 2.986 1.582 0 3.473-.363 5.675-1.088l.376-.118v-5.755h-5.32z"/><path d="m272.932 345.985h3.955v24.027h12.439v3.599h-16.394z"/><path d="m306.353 345.59c4.271 0 7.828 1.351 10.669 4.054 2.841 2.702 4.261 6.09 4.261 10.164s-1.434 7.446-4.301 10.115c-2.867 2.67-6.483 4.005-10.847 4.005-4.166 0-7.636-1.335-10.412-4.005-2.775-2.669-4.162-6.015-4.162-10.036 0-4.126 1.397-7.541 4.192-10.243 2.795-2.703 6.328-4.054 10.6-4.054zm.158 3.757c-3.164 0-5.765.989-7.801 2.966-2.037 1.978-3.056 4.502-3.056 7.574 0 2.98 1.022 5.458 3.065 7.436 2.044 1.977 4.602 2.966 7.673 2.966 3.085 0 5.659-1.008 7.723-3.026 2.063-2.017 3.094-4.528 3.094-7.534 0-2.927-1.031-5.389-3.094-7.386-2.064-1.997-4.598-2.996-7.604-2.996z"/><path d="m335.482 373.611h-9.354v-27.626h7.238c2.281 0 4.06.307 5.339.92s2.255 1.456 2.927 2.531c.672 1.074 1.009 2.317 1.009 3.728 0 2.715-1.404 4.66-4.213 5.833 2.018.383 3.623 1.213 4.816 2.492s1.789 2.808 1.789 4.588c0 1.411-.362 2.67-1.087 3.777s-1.79 2.011-3.194 2.709c-1.404.699-3.161 1.048-5.27 1.048zm-1.997-24.106h-3.402v8.306h2.63c2.11 0 3.609-.402 4.499-1.206.89-.805 1.335-1.846 1.335-3.125 0-2.65-1.687-3.975-5.062-3.975zm.296 11.826h-3.698v8.76h3.896c2.162 0 3.629-.168 4.4-.504s1.391-.86 1.859-1.572.702-1.477.702-2.294c0-.844-.247-1.615-.742-2.314-.494-.698-1.196-1.219-2.106-1.562-.909-.343-2.346-.514-4.311-.514z"/><path d="m368.151 345.985h3.975v15.682c0 2.123-.155 3.724-.465 4.805s-.692 1.981-1.147 2.7c-.455.718-1.012 1.361-1.671 1.928-2.188 1.885-5.049 2.828-8.583 2.828-3.599 0-6.486-.936-8.661-2.808-.659-.58-1.216-1.23-1.671-1.948-.455-.719-.831-1.599-1.127-2.64-.297-1.042-.445-2.677-.445-4.905v-15.642h3.975v15.682c0 2.597.296 4.403.889 5.418.594 1.016 1.497 1.83 2.71 2.443s2.643.919 4.291.919c2.347 0 4.258-.613 5.735-1.839.778-.659 1.338-1.437 1.681-2.333.342-.897.514-2.433.514-4.608z"/><path d="m384.446 362.023-3.006-1.819c-1.885-1.147-3.227-2.278-4.024-3.392-.798-1.114-1.197-2.396-1.197-3.846 0-2.175.755-3.942 2.264-5.3 1.51-1.358 3.471-2.037 5.884-2.037 2.307 0 4.423.646 6.348 1.938v4.489c-1.991-1.911-4.133-2.867-6.427-2.867-1.292 0-2.354.3-3.184.9-.831.599-1.246 1.367-1.246 2.303 0 .831.303 1.609.91 2.334.606.725 1.588 1.483 2.946 2.274l3.026 1.78c3.375 2.004 5.062 4.561 5.062 7.673 0 2.215-.741 4.014-2.225 5.398-1.483 1.385-3.411 2.077-5.784 2.077-2.729 0-5.214-.837-7.455-2.512v-5.023c2.136 2.703 4.608 4.054 7.416 4.054 1.239 0 2.271-.346 3.094-1.038.824-.692 1.236-1.559 1.236-2.6 0-1.688-1.212-3.283-3.638-4.786z"/></g></svg>