<svg clip-rule="evenodd" fill-rule="evenodd" stroke-linecap="round" stroke-linejoin="round" stroke-miterlimit="1.5" viewBox="0 0 400 600" xmlns="http://www.w3.org/2000/svg"><path d="m-92.079-149.652h589.096v885.063h-589.096z"/><g fill="none" stroke="#988b64" stroke-width="3"><path d="m-17.953 132.445 439.631-439.631"/><path d="m-17.953 268.038 439.631-439.631"/><path d="m-19.028 362.155 439.631-439.632"/><path d="m-16.991 466.571 439.631-439.631"/><path d="m-18.374 522.171 439.632-439.631"/><path d="m-19.249 632.84 439.631-439.631"/><path d="m-5.875 725.62 439.632-439.631"/><path d="m1.775 773.008 439.631-439.631"/><path d="m43.969 892.88 439.632-439.632"/></g><path d="m68.971 183.839h266.413v196.36h-266.413z"/><path d="m118.12 228.746 165.943.667v106.167l-166.535.81z" fill="none" stroke="#988b64" stroke-width="3"/><path d="m282.692 229.436-80.543 81.459-83.964-81.676" fill="none" stroke="#988b64" stroke-width="3"/><path d="m117.836 335.875 54.187-54.186" fill="none" stroke="#988b64" stroke-width="3"/><path d="m283.981 335.538-53.387-53.387" fill="none" stroke="#988b64" stroke-width="3"/></svg>