<svg id="Ebene_1" data-name="Ebene 1" xmlns="http://www.w3.org/2000/svg" viewBox="0 0 42.58 56"><defs><style>.cls-1{fill:none;stroke:#000;stroke-miterlimit:10;}.cls-2,.cls-3{fill-rule:evenodd;}.cls-3{fill:#fff;}</style></defs><title>Unbenannt-1</title><path class="cls-1" d="M267.88,222.2c1,7.11,2.05,14,3.12,21.33H238.14l3.14-21.33Z" transform="translate(-229 -209)"/><ellipse cx="25.9" cy="20.27" rx="13.39" ry="0.75"/><path class="cls-1" d="M244,220s0-10.5,10.5-10.5S265,220,265,220" transform="translate(-229 -209)"/><path class="cls-2" d="M255.33,255.32a9.68,9.68,0,0,1-9.68,9.68c-3.55,0-7.29-1.65-9.86-6.34-3.71-6.77-8.47-11.21-6.2-13.47,1.62-1.62,4.16-.07,6.38,2V237.12a2.85,2.85,0,1,1,5.69,0v5.68a2.85,2.85,0,0,1,4.38,1.29,2.84,2.84,0,0,1,4.73,2.12v0a2.85,2.85,0,0,1,4.56,2.28Zm-9.68,8.54a8.71,8.71,0,0,0,8.54-8.54h0v-6.83a1.71,1.71,0,0,0-3.42,0v.57h-1.14v-2.84a1.71,1.71,0,1,0-3.41,0v1.7h-1.14v-2.84a1.71,1.71,0,0,0-3.42,0v4h-1.13V237.11a1.71,1.71,0,1,0-3.42,0V250c-2.34-2.5-5.43-5.26-6.69-4s2,4.68,6.4,12.17C238.83,261.53,241.37,263.86,245.65,263.86Z" transform="translate(-229 -209)"/><path class="cls-3" d="M245.65,263.86a8.71,8.71,0,0,0,8.54-8.54h0v-6.83a1.71,1.71,0,0,0-3.42,0v.57h-1.14v-2.84a1.71,1.71,0,1,0-3.41,0v1.7h-1.14v-2.84a1.71,1.71,0,0,0-3.42,0v4h-1.13V237.11a1.71,1.71,0,1,0-3.42,0V250c-2.34-2.5-5.43-5.26-6.69-4s2,4.68,6.4,12.17C238.83,261.53,241.37,263.86,245.65,263.86Z" transform="translate(-229 -209)"/></svg>