<svg id="Ebene_1" data-name="Ebene 1" xmlns="http://www.w3.org/2000/svg" viewBox="0 0 68.26 35.03"><defs><style>.cls-1{fill:none;stroke:#000;stroke-miterlimit:10;}.cls-2{fill-rule:evenodd;}</style></defs><title>icon-retour-oder-behalten</title><path class="cls-1" d="M317.88,246.2c1,7.11,2.05,14,3.12,21.33H288.14l3.14-21.33Z" transform="translate(-270.37 -233)"/><ellipse cx="34.53" cy="20.27" rx="13.39" ry="0.75"/><path class="cls-1" d="M294,244s0-10.5,10.5-10.5S315,244,315,244" transform="translate(-270.37 -233)"/><polygon class="cls-2" points="55.41 24.12 55.41 22.46 65.02 22.46 61.25 18.69 62.42 17.52 68.26 23.37 62.42 29.21 61.25 28.04 65.18 24.12 55.41 24.12"/><polygon class="cls-2" points="12.86 22.62 12.86 24.27 3.24 24.27 7.01 28.04 5.84 29.21 0 23.37 5.84 17.52 7.01 18.69 3.09 22.62 12.86 22.62"/></svg>